<?xml version="1.0" encoding="UTF-8" standalone="no"?>
<!DOCTYPE svg  PUBLIC '-//W3C//DTD SVG 1.1//EN'  'http://www.w3.org/Graphics/SVG/1.1/DTD/svg11.dtd'>
<svg xmlns="http://www.w3.org/2000/svg">
<defs>
<font id="DIN-Regular" horiz-adv-x="522">
<font-face underline-position="-114" font-weight="400" descent="-200" panose-1="0 0 4 0 0 0 0 0 0 0" units-per-em="1000" unicode-range="U+0020-25CA" bbox="-104 -226 1115 985" x-height="492" underline-thickness="51" font-family="DIN" ascent="800" cap-height="712"/>
<missing-glyph horiz-adv-x="1000"/>
<glyph glyph-name=".notdef" horiz-adv-x="1000"/>
<glyph glyph-name=".null" horiz-adv-x="0"/>
<glyph glyph-name="nonmarkingreturn" horiz-adv-x="1000"/>
<glyph glyph-name="space" horiz-adv-x="249" unicode=" "/>
<glyph glyph-name="exclam" horiz-adv-x="316" unicode="!" d="M216 0h-86v84h86v-84zM215 712l-11 -512h-62l-10 512h83z"/>
<glyph glyph-name="quotedbl" horiz-adv-x="423" unicode='&quot;' d="M167 542h-79v170h79v-170zM335 542h-79v170h79v-170z"/>
<glyph glyph-name="numbersign" horiz-adv-x="653" unicode="#" d="M432 432h-159l-23 -141h159zM602 432h-96l-23 -141h89v-64h-99l-36 -227h-74l36 227h-160l-35 -227h-74l36 227h-89v64h100l23 141h-92v66h101l34 215h75l-35 -215h159l34 215h73l-34 -215h87v-66z"/>
<glyph glyph-name="dollar" horiz-adv-x="596" unicode="$" d="M464 194q0 58 -35 89q-22 19 -52 27q-12 3 -58 10v-257q68 5 106.5 39.5t38.5 91.5zM266 399v252q-62 -5 -96 -40t-34 -91q0 -55 32 -82q35 -30 98 -39zM540 196q0 -86 -59 -139.5t-159 -60.5v-110h-60v108q-132 6 -220 94l52 52q73 -73 172 -77v265l-20 2q-77 8 -131 55 t-54 132t54 139t147 61v89h60v-89q106 -5 186 -77l-49 -49q-61 55 -140 60v-259l31 -5q87 -14 129 -50q61 -52 61 -141z"/>
<glyph glyph-name="percent" horiz-adv-x="833" unicode="%" d="M278 481v101q0 87 -78 87t-78 -87v-101q0 -86 78 -86t78 86zM712 130v101q0 87 -78 87t-78 -87v-101q0 -87 78 -87t78 87zM335 479q0 -60 -38 -97t-97 -37t-97 37t-38 97v105q0 61 38 98t97 37t97 -37t38 -98v-105zM614 712l-334 -712h-60l334 712h60zM769 128 q0 -61 -38 -98t-97 -37t-97 37t-38 98v105q0 61 38 98t97 37t97 -37t38 -98v-105z"/>
<glyph glyph-name="ampersand" horiz-adv-x="739" unicode="&amp;" d="M469 130l-196 236q-62 -43 -84 -67q-38 -42 -38 -96q0 -63 42 -102.5t108 -39.5q91 0 168 69zM395 568q0 36 -24 60.5t-60 24.5t-59 -23.5t-23 -59.5q0 -39 64 -117q11 7 38 26q64 44 64 89zM671 0h-95l-64 78q-90 -84 -210 -84q-103 0 -164 56.5t-61 150.5q0 72 48 127 q30 35 106 86q-37 45 -52 69q-25 44 -25 86q0 64 44.5 106.5t112.5 42.5q67 0 111 -43t44 -107q0 -73 -79 -127q-18 -12 -53 -36l182 -219q39 59 40 163h72q-2 -141 -66 -218z"/>
<glyph glyph-name="quotesingle" horiz-adv-x="255" unicode="&apos;" d="M167 542h-79v170h79v-170z"/>
<glyph glyph-name="parenleft" horiz-adv-x="298" unicode="(" d="M234 -45l-49 -49q-31 31 -41 43q-19 21 -31 43q-21 39 -21 103v522q0 65 21 103q17 31 72 86l49 -49l-31 -31q-14 -17 -23 -34q-16 -32 -16 -81v-510q0 -49 16 -81q11 -22 54 -65z"/>
<glyph glyph-name="parenright" horiz-adv-x="298" unicode=")" d="M205 95q0 -66 -20 -103q-17 -31 -72 -86l-51 51l31 31q16 17 24 34q14 28 14 79v510q0 51 -14 79q-10 20 -55 65l51 51q31 -31 41 -43q19 -21 31 -43q20 -37 20 -103v-522z"/>
<glyph glyph-name="asterisk" horiz-adv-x="474" unicode="*" d="M407 472l-28 -49l-117 71l4 -137h-58l4 137l-116 -71l-29 49l120 65l-120 66l29 48l116 -71l-4 137h58l-4 -137l117 71l28 -48l-120 -66z"/>
<glyph glyph-name="plus" d="M470 234h-175v-176h-67v176h-176v67h176v174h67v-174h175v-67z" unicode="+"/>
<glyph glyph-name="comma" horiz-adv-x="264" unicode="," d="M176 -65l-88 -79v232h88v-153z"/>
<glyph glyph-name="period" horiz-adv-x="270" unicode="." d="M182 0h-94v94h94v-94z"/>
<glyph glyph-name="slash" horiz-adv-x="355" unicode="/" d="M356 786l-285 -860h-71l285 860h71z"/>
<glyph glyph-name="zero" d="M384 194v324q0 60 -32.5 98t-90.5 38t-90.5 -38t-32.5 -98v-324q0 -60 32.5 -98t90.5 -38t90.5 38t32.5 98zM456 190q0 -87 -55.5 -141.5t-139.5 -54.5t-139.5 54.5t-55.5 141.5v332q0 87 55.5 141.5t139.5 54.5t139.5 -54.5t55.5 -141.5v-332z" unicode="0"/>
<glyph glyph-name="one" d="M330 0h-72v632l-133 -117v82l133 115h72v-712z" unicode="1"/>
<glyph glyph-name="two" d="M461 0h-393v64l281 357q40 51 40 105q0 58 -33 93t-91 35q-54 0 -87 -30q-37 -34 -37 -99h-72q0 85 54 139t142 54t142 -52.5t54 -139.5q0 -71 -57 -144l-249 -318h306v-64z" unicode="2"/>
<glyph glyph-name="three" d="M460 194q0 -95 -61 -150q-57 -51 -148 -51q-89 0 -144 46q-61 49 -65 142h72q4 -63 45 -95q36 -29 92 -29q59 0 98 37t39 101q0 138 -140 138h-15v63h15q127 0 127 129q0 62 -35 96t-89 34q-56 0 -89.5 -32t-38.5 -87h-72q6 85 63 135q54 48 137 48q87 0 141.5 -53 t54.5 -140q0 -114 -96 -158q109 -41 109 -174z" unicode="3"/>
<glyph glyph-name="four" d="M482 113h-87v-113h-71v113h-284v65l257 534h77l-257 -534h207v202h71v-202h87v-65z" unicode="4"/>
<glyph glyph-name="five" d="M462 235q0 -132 -57 -189q-53 -53 -142 -53q-93 0 -143 51q-44 44 -50 124h72q14 -111 121 -111q55 0 88 33q39 39 39 145q0 173 -120 173q-95 0 -118 -70h-65v374h360v-64h-295v-226q44 49 128 49q78 0 123 -45q59 -59 59 -191z" unicode="5"/>
<glyph glyph-name="six" d="M388 202q0 62 -32 102q-35 42 -94 42q-57 0 -91 -39t-34 -105q0 -65 34 -104.5t91 -39.5t91.5 39.5t34.5 104.5zM460 205q0 -92 -54 -151.5t-143 -59.5q-90 0 -144 56t-54 149q0 69 45 160l175 353h74l-159 -320q33 15 75 15q83 0 134 -56.5t51 -145.5z" unicode="6"/>
<glyph glyph-name="seven" d="M471 648l-247 -648h-76l247 648h-248v-112h-71v176h395v-64z" unicode="7"/>
<glyph glyph-name="eight" d="M399 197q0 59 -39.5 99t-98.5 40t-98.5 -40t-39.5 -99t39.5 -99t98.5 -40t98.5 40t39.5 99zM385 526q0 56 -34.5 92t-89.5 36t-89.5 -36t-34.5 -92t34.5 -91.5t89.5 -35.5t89.5 35.5t34.5 91.5zM471 196q0 -89 -60 -145.5t-150 -56.5t-150 56.5t-60 145.5q0 112 107 173 q-93 53 -93 158q0 83 55.5 137t140.5 54t140.5 -54t55.5 -137q0 -105 -92 -158q106 -60 106 -173z" unicode="8"/>
<glyph glyph-name="nine" d="M385 510q0 65 -34.5 104.5t-91.5 39.5t-91 -39.5t-34 -104.5q0 -62 33 -103t92 -41q57 0 91.5 39t34.5 105zM457 513q0 -69 -45 -160l-175 -353h-75l160 320q-33 -15 -76 -15q-82 0 -133 56.5t-51 145.5q0 92 54 151.5t143 59.5q90 0 144 -56t54 -149z" unicode="9"/>
<glyph glyph-name="colon" horiz-adv-x="297" unicode=":" d="M209 0h-94v94h94v-94zM209 301h-94v94h94v-94z"/>
<glyph glyph-name="semicolon" horiz-adv-x="297" unicode=";" d="M205 -65l-88 -79v232h88v-153zM209 301h-94v94h94v-94z"/>
<glyph glyph-name="less" horiz-adv-x="1027" unicode="&lt;" d="M972 234h-789l365 -364h-94l-399 399l399 399h94l-365 -364h789v-70z"/>
<glyph glyph-name="equal" d="M470 151h-418v66h418v-66zM470 320h-418v67h418v-67z" unicode="="/>
<glyph glyph-name="greater" horiz-adv-x="1027" unicode="&gt;" d="M972 269l-399 -399h-94l365 364h-789v70h789l-365 364h94z"/>
<glyph glyph-name="question" horiz-adv-x="497" unicode="?" d="M313 0h-86v84h86v-84zM451 536q0 -56 -45 -121l-82 -118q-18 -26 -18 -58v-39h-72v40q0 49 31 94l81 117q33 48 33 85q0 51 -32.5 84.5t-82.5 33.5q-52 0 -84 -35t-32 -84h-72q0 77 54 130t134 53t133.5 -51.5t53.5 -130.5z"/>
<glyph glyph-name="at" horiz-adv-x="713" unicode="@" d="M571 238q0 84 -21 126q-29 57 -100 57t-100 -57q-21 -42 -21 -126t21 -126q29 -57 100 -57t100 57q21 42 21 126zM641 -1l-69 1v55q-49 -62 -134 -62q-102 0 -150 81q-30 51 -30 164q0 128 41 183q46 62 138 62q83 0 134 -63v78q0 74 -39 114t-111 40h-130 q-69 0 -109 -40t-40 -114v-337q0 -47 11.5 -71.5t45.5 -49.5l-49 -49q-46 34 -62 68.5t-16 100.5v336q0 104 55.5 160.5t154.5 56.5h148q98 0 154.5 -56.5t56.5 -160.5v-497z"/>
<glyph glyph-name="A" horiz-adv-x="611" unicode="A" d="M439 227l-132 376l-134 -376h266zM599 0h-81l-57 161h-311l-57 -161h-81l262 712h64z"/>
<glyph glyph-name="B" horiz-adv-x="668" unicode="B" d="M516 199q0 60 -38.5 95t-104.5 35h-194v-261h194q66 0 104.5 35.5t38.5 95.5zM505 521q0 61 -38.5 92t-101.5 31h-186v-247h186q62 0 101 31.5t39 92.5zM592 197q0 -95 -57.5 -146t-154.5 -51h-277v712h268q94 0 152 -51t58 -139q0 -55 -29.5 -97t-75.5 -59 q116 -43 116 -169z"/>
<glyph glyph-name="C" horiz-adv-x="637" unicode="C" d="M572 206q-17 -99 -84 -155.5t-163 -56.5q-108 0 -182 74q-46 46 -59 112q-8 45 -8 176t8 176q13 66 59 112q74 74 182 74q97 0 163 -56t84 -156h-78q-14 66 -58.5 105t-110.5 39q-74 0 -123 -50q-32 -33 -42 -83q-8 -44 -8 -161t8 -161q10 -50 42 -83q49 -50 123 -50 q66 0 111.5 39t59.5 105h76z"/>
<glyph glyph-name="D" horiz-adv-x="673" unicode="D" d="M521 364q0 92 -5 128q-9 66 -42 100q-50 52 -140 52h-155v-576h155q90 0 140 52q32 33 42 108q5 40 5 136zM597 364q0 -112 -7 -158q-14 -91 -63 -140q-66 -66 -180 -66h-244v712h244q114 0 180 -66q49 -49 63 -132q7 -43 7 -150z"/>
<glyph glyph-name="E" horiz-adv-x="600" unicode="E" d="M545 0h-442v712h442v-68h-366v-251h312v-68h-312v-257h366v-68z"/>
<glyph glyph-name="F" horiz-adv-x="580" unicode="F" d="M545 644h-366v-262h312v-68h-312v-314h-76v712h442v-68z"/>
<glyph glyph-name="G" horiz-adv-x="650" unicode="G" d="M576 260q0 -118 -61 -184q-76 -82 -190 -82q-108 0 -182 74q-46 46 -59 112q-8 45 -8 176t8 176q13 66 59 112q74 74 182 74q100 0 168 -60q65 -57 81 -153h-76q-15 68 -61 106.5t-112 38.5q-73 0 -123 -51q-32 -33 -42 -83q-8 -43 -8 -160t8 -161q10 -50 42 -83 q49 -50 123 -50q85 0 135 61q40 48 40 129v54h-175v67h251v-113z"/>
<glyph glyph-name="H" horiz-adv-x="696" unicode="H" d="M593 0h-76v325h-338v-325h-76v712h76v-319h338v319h76v-712z"/>
<glyph glyph-name="I" horiz-adv-x="282" unicode="I" d="M179 0h-76v712h76v-712z"/>
<glyph glyph-name="J" horiz-adv-x="501" unicode="J" d="M408 216q0 -102 -61.5 -162t-160.5 -60t-163 64l51 51q47 -47 112 -47q70 0 108 42.5t38 121.5v486h76v-496z"/>
<glyph glyph-name="K" horiz-adv-x="650" unicode="K" d="M636 0h-90l-217 379l-150 -180v-199h-76v712h76v-409l332 409h93l-224 -275z"/>
<glyph glyph-name="L" horiz-adv-x="573" unicode="L" d="M543 0h-440v712h76v-644h364v-68z"/>
<glyph glyph-name="M" horiz-adv-x="816" unicode="M" d="M713 0h-76v541l-195 -429h-65l-198 429v-541h-76v712h76l232 -505l226 505h76v-712z"/>
<glyph glyph-name="N" horiz-adv-x="732" unicode="N" d="M629 0h-72l-378 571v-571h-76v712h72l378 -569v569h76v-712z"/>
<glyph glyph-name="O" horiz-adv-x="650" unicode="O" d="M498 356q0 117 -8 160q-10 50 -42 83q-50 51 -123 51t-123 -51q-32 -33 -42 -83q-8 -43 -8 -160t8 -160q10 -50 42 -83q50 -51 123 -51t123 51q32 33 42 83q8 43 8 160zM574 356q0 -131 -8 -176q-13 -66 -59 -112q-74 -74 -182 -74t-182 74q-46 46 -59 112q-8 45 -8 176 t8 176q13 66 59 112q74 74 182 74t182 -74q46 -46 59 -112q8 -45 8 -176z"/>
<glyph glyph-name="P" horiz-adv-x="630" unicode="P" d="M512 503q0 69 -41 105t-110 36h-182v-283h182q69 0 110 36.5t41 105.5zM588 503q0 -95 -61 -152.5t-159 -57.5h-189v-293h-76v712h265q98 0 159 -57t61 -152z"/>
<glyph glyph-name="Q" horiz-adv-x="649" unicode="Q" d="M498 356q0 117 -8 160q-10 50 -42 83q-50 51 -123 51t-123 -51q-32 -33 -42 -83q-8 -43 -8 -160t8 -160q10 -50 42 -83q50 -51 123 -51q56 0 101 34l-90 90l46 46l87 -87q18 30 24 79q5 39 5 132zM603 11l-46 -46l-79 79q-65 -50 -153 -50q-108 0 -182 74q-46 46 -59 112 q-8 45 -8 176t8 176q13 66 59 112q74 74 182 74t182 -74q46 -46 59 -112q8 -45 8 -176q0 -119 -6 -162q-9 -63 -43 -105z"/>
<glyph glyph-name="R" horiz-adv-x="656" unicode="R" d="M511 513q0 63 -39 97t-103 34h-190v-261h190q65 0 103.5 33.5t38.5 96.5zM601 0h-89l-162 316h-171v-316h-76v712h273q94 0 152.5 -53.5t58.5 -144.5q0 -76 -42 -126t-113 -65z"/>
<glyph glyph-name="S" horiz-adv-x="588" unicode="S" d="M532 196q0 -93 -67 -147.5t-179 -54.5q-150 0 -244 94l52 52q78 -78 194 -78q78 0 123 35t45 97q0 59 -34 89q-27 24 -93 34l-83 13q-185 29 -185 187q0 91 61.5 146t166.5 55q125 0 212 -78l-49 -49q-67 61 -166 61q-70 0 -110 -36t-40 -96q0 -54 33 -82.5t95 -38.5 l78 -12q87 -13 130 -50q60 -51 60 -141z"/>
<glyph glyph-name="T" horiz-adv-x="548" unicode="T" d="M518 644h-206v-644h-76v644h-206v68h488v-68z"/>
<glyph glyph-name="U" horiz-adv-x="683" unicode="U" d="M590 235q0 -106 -70.5 -173.5t-178.5 -67.5t-178 67.5t-70 173.5v477h76v-471q0 -81 47 -130t125 -49t125.5 49t47.5 130v471h76v-477z"/>
<glyph glyph-name="V" horiz-adv-x="546" unicode="V" d="M538 712l-234 -712h-62l-234 712h80l185 -576l185 576h80z"/>
<glyph glyph-name="W" horiz-adv-x="854" unicode="W" d="M838 712l-182 -712h-71l-158 570l-158 -570h-71l-182 712h81l139 -574l157 574h68l157 -574l139 574h81z"/>
<glyph glyph-name="X" horiz-adv-x="551" unicode="X" d="M536 0h-88l-173 299l-174 -299h-86l218 365l-204 347h88l158 -281l158 281h88l-205 -347z"/>
<glyph glyph-name="Y" horiz-adv-x="514" unicode="Y" d="M506 712l-210 -418v-294h-76v294l-212 418h82l168 -341l166 341h82z"/>
<glyph glyph-name="Z" horiz-adv-x="556" unicode="Z" d="M499 0h-442v72l356 572h-342v68h428v-64l-359 -580h359v-68z"/>
<glyph glyph-name="bracketleft" horiz-adv-x="313" unicode="[" d="M269 -74h-177v860h177v-64h-105v-732h105v-64z"/>
<glyph glyph-name="backslash" horiz-adv-x="355" unicode="\" d="M355 -74h-71l-284 857h71z"/>
<glyph glyph-name="bracketright" horiz-adv-x="313" unicode="]" d="M221 -74h-177v62h108v736h-108v62h177v-860z"/>
<glyph glyph-name="asciicircum" horiz-adv-x="537" unicode="^" d="M465 413h-74l-122 228l-123 -228h-74l164 305h66z"/>
<glyph glyph-name="underscore" horiz-adv-x="537" unicode="_" d="M537 -165h-537v51h537v-51z"/>
<glyph glyph-name="grave" horiz-adv-x="500" unicode="`" d="M299 594h-66l-108 153h86z"/>
<glyph glyph-name="a" horiz-adv-x="526" unicode="a" d="M369 174v53h-138q-110 0 -110 -87q0 -84 113 -84q76 0 110 33q25 24 25 85zM441 0h-72v47q-53 -53 -142 -53q-95 0 -139 45q-37 38 -37 100q0 66 44.5 104t125.5 38h148v47q0 108 -126 108q-84 0 -124 -56l-49 45q32 41 74 58q38 15 100 15q197 0 197 -164v-334z"/>
<glyph glyph-name="b" horiz-adv-x="545" unicode="b" d="M409 246q0 87 -21 130q-29 58 -102 58t-102 -58q-22 -43 -22 -130t22 -130q29 -58 102 -58t102 58q21 43 21 130zM481 246q0 -149 -60 -209q-43 -43 -120 -43q-89 0 -139 65v-59h-72v712h72v-277q49 63 139 63q77 0 120 -43q60 -60 60 -209z"/>
<glyph glyph-name="c" horiz-adv-x="490" unicode="c" d="M443 67q-38 -41 -74 -57t-88 -16q-97 0 -155 63q-63 67 -63 189t63 189q58 63 155 63q52 0 88 -16t74 -57l-49 -46q-50 55 -113 55q-74 0 -114 -56q-32 -45 -32 -132t32 -132q40 -56 114 -56q62 0 113 56z"/>
<glyph glyph-name="d" horiz-adv-x="545" unicode="d" d="M383 246q0 87 -21 130q-29 58 -102 58t-102 -58q-22 -43 -22 -130t22 -130q29 -58 102 -58t102 58q21 43 21 130zM455 0h-71v59q-50 -65 -140 -65q-77 0 -120 43q-60 60 -60 209t60 209q43 43 120 43q90 0 139 -63v277h72v-712z"/>
<glyph glyph-name="e" horiz-adv-x="530" unicode="e" d="M395 281q-3 52 -15 82q-31 74 -115 74t-115 -74q-12 -30 -15 -82h260zM467 227h-332q0 -81 37.5 -125.5t107.5 -44.5q73 0 129 56l49 -43q-40 -40 -77 -57q-43 -19 -103 -19q-101 0 -156 61q-59 64 -59 191q0 119 54 185.5t148 66.5q95 0 148.5 -64t53.5 -174v-33z"/>
<glyph glyph-name="f" horiz-adv-x="314" unicode="f" d="M283 434h-105v-434h-72v434h-63v55h63v93q0 58 31 93q34 39 94 39h52v-62h-39q-66 0 -66 -72v-91h105v-55z"/>
<glyph glyph-name="g" horiz-adv-x="543" unicode="g" d="M381 250q0 84 -21 127q-28 57 -101 57t-102 -57q-21 -43 -21 -127t21 -126q29 -58 102 -58t101 58q21 42 21 126zM453 -15q0 -93 -55 -152t-150 -59q-54 0 -90.5 15t-76.5 51l47 46q30 -27 51 -37q27 -12 67 -12q68 0 103 44q32 40 32 107v77q-50 -64 -138 -64 q-75 0 -119 44q-60 60 -60 205t60 205q43 43 120 43q89 0 138 -64v58h71v-507z"/>
<glyph glyph-name="h" horiz-adv-x="562" unicode="h" d="M477 0h-72v304q0 130 -120 130q-57 0 -90 -33.5t-33 -96.5v-304h-72v712h72v-274q53 60 138 60q83 0 130 -49t47 -133v-316z"/>
<glyph glyph-name="i" horiz-adv-x="253" unicode="i" d="M162 0h-72v492h72v-492zM167 632h-81v81h81v-81z"/>
<glyph glyph-name="j" horiz-adv-x="253" unicode="j" d="M162 -89q0 -59 -30 -94q-33 -38 -95 -38h-52v63h39q66 0 66 72v575h72v-578zM167 632h-81v81h81v-81z"/>
<glyph glyph-name="k" horiz-adv-x="536" unicode="k" d="M503 0h-89l-156 252l-96 -110v-142h-72v712h72v-476l222 256h90l-167 -188z"/>
<glyph glyph-name="l" horiz-adv-x="297" unicode="l" d="M265 0h-52q-62 0 -93.5 36t-31.5 95v581h72v-578q0 -72 66 -72h39v-62z"/>
<glyph glyph-name="m" horiz-adv-x="879" unicode="m" d="M794 0h-72v303q0 131 -121 131q-55 0 -89 -33t-34 -90v-311h-72v303q0 131 -121 131q-57 0 -90 -34t-33 -97v-303h-72v492h72v-54q53 60 139 60q105 0 151 -82q58 82 162 82q80 0 127 -46q53 -51 53 -137v-315z"/>
<glyph glyph-name="n" horiz-adv-x="562" unicode="n" d="M477 0h-72v303q0 131 -121 131q-57 0 -89.5 -34t-32.5 -97v-303h-72v492h72v-54q53 60 138 60q79 0 126 -46q51 -50 51 -137v-315z"/>
<glyph glyph-name="o" horiz-adv-x="530" unicode="o" d="M394 246q0 113 -39 152q-36 36 -90 36q-53 0 -89 -36q-40 -40 -40 -152t40 -152q36 -36 89 -36q54 0 91.5 37.5t37.5 150.5zM466 246q0 -135 -60 -196q-55 -56 -141 -56t-141 56q-60 61 -60 196t60 196q55 56 141 56t141 -56q60 -61 60 -196z"/>
<glyph glyph-name="p" horiz-adv-x="545" unicode="p" d="M409 246q0 87 -21 130q-29 58 -102 58t-102 -58q-22 -43 -22 -130t22 -130q29 -58 102 -58t102 58q21 43 21 130zM481 246q0 -149 -60 -209q-43 -43 -120 -43q-89 0 -139 64v-278h-72v712h72v-58q49 64 139 64q77 0 120 -43q60 -60 60 -209z"/>
<glyph glyph-name="q" horiz-adv-x="545" unicode="q" d="M383 246q0 87 -21 130q-29 58 -102 58t-102 -58q-22 -43 -22 -130t22 -130q29 -58 102 -58t102 58q21 43 21 130zM455 -220h-72v278q-50 -64 -139 -64q-77 0 -120 43q-60 60 -60 209t60 209q43 43 120 43q91 0 140 -64v58h71v-712z"/>
<glyph glyph-name="r" horiz-adv-x="421" unicode="r" d="M418 452l-53 -54q-36 36 -85 36q-53 0 -85.5 -37.5t-32.5 -94.5v-302h-72v492h72v-60q43 66 138 66q72 0 118 -46z"/>
<glyph glyph-name="s" horiz-adv-x="496" unicode="s" d="M445 144q0 -70 -54.5 -110t-145.5 -40q-128 0 -202 71l48 48q54 -57 153 -57q131 0 131 87q0 65 -82 72l-81 7q-147 13 -147 132q0 66 50.5 105t130.5 39q112 0 177 -53l-47 -47q-51 39 -131 39q-110 0 -110 -81q0 -64 86 -72l79 -7q145 -13 145 -133z"/>
<glyph glyph-name="t" horiz-adv-x="332" unicode="t" d="M279 0h-51q-61 0 -94 39q-32 35 -32 93v302h-62v55h62v154h72v-154h105v-55h-105v-300q0 -72 67 -72h38v-62z"/>
<glyph glyph-name="u" horiz-adv-x="562" unicode="u" d="M472 0h-71v55q-53 -61 -139 -61q-80 0 -127 46q-50 49 -50 138v314h72v-303q0 -131 120 -131q57 0 90 34t33 97v303h72v-492z"/>
<glyph glyph-name="v" horiz-adv-x="447" unicode="v" d="M436 492l-181 -492h-64l-180 492h78l134 -395l135 395h78z"/>
<glyph glyph-name="w" horiz-adv-x="724" unicode="w" d="M713 492l-155 -492h-67l-129 382l-128 -382h-67l-156 492h78l113 -395l129 395h62l130 -395l112 395h78z"/>
<glyph glyph-name="x" horiz-adv-x="478" unicode="x" d="M445 0h-87l-118 191l-120 -191h-87l167 251l-160 241h87l113 -182l111 182h87l-160 -241z"/>
<glyph glyph-name="y" horiz-adv-x="447" unicode="y" d="M436 492l-224 -611q-14 -38 -35 -58q-36 -34 -96 -34h-31v64h22q36 0 52 13t29 48l35 96l-177 482h78l135 -395l134 395h78z"/>
<glyph glyph-name="z" horiz-adv-x="459" unicode="z" d="M407 0h-357v62l274 366h-259v64h342v-61l-275 -367h275v-64z"/>
<glyph glyph-name="braceleft" horiz-adv-x="354" unicode="{" d="M305 -74h-37q-71 0 -101 30t-30 99v191q0 42 -18 60t-45 18h-26v64h26q27 0 45 18t18 60v191q0 69 30 99t101 30h37v-64h-23q-57 0 -67 -26q-6 -15 -6 -52v-188q0 -70 -63 -100q63 -30 63 -100v-188q0 -56 19 -69q13 -9 54 -9h23v-64z"/>
<glyph glyph-name="bar" horiz-adv-x="326" unicode="|" d="M199 -74h-72v860h72v-860z"/>
<glyph glyph-name="braceright" horiz-adv-x="354" unicode="}" d="M305 324h-25q-27 0 -45 -18t-18 -60v-191q0 -69 -30 -99t-101 -30h-38v64h24q45 0 59 14t14 64v188q0 70 63 100q-63 30 -63 100v188q0 55 -20 69q-13 9 -53 9h-24v64h38q71 0 101 -30t30 -99v-191q0 -42 18 -60t45 -18h25v-64z"/>
<glyph glyph-name="asciitilde" horiz-adv-x="539" unicode="~" d="M490 278q-41 -41 -67.5 -54.5t-61.5 -13.5q-38 0 -106 31q-53 24 -78 24q-39 0 -84 -45l-44 45q41 41 69 55q25 13 60 13q37 0 105 -31q53 -24 78 -24q39 0 84 45z"/>
<glyph glyph-name="nonbreakingspace" horiz-adv-x="249" unicode=" "/>
<glyph glyph-name="exclamdown" horiz-adv-x="316" unicode="¡" d="M184 -220h-83l10 512h62zM185 408h-86v84h86v-84z"/>
<glyph glyph-name="cent" horiz-adv-x="498" unicode="¢" d="M248 182v368q-49 -9 -80 -52q-33 -46 -33 -132t32 -130.5t81 -53.5zM448 189q-63 -68 -145 -74v-115h-59v117q-84 12 -132.5 77.5t-48.5 171.5t49 173q48 64 132 76v97h59v-95q82 -6 145 -74l-49 -46q-45 51 -100 55v-372q55 4 100 55z"/>
<glyph glyph-name="sterling" horiz-adv-x="548" unicode="£" d="M496 0h-386v330h-63v54h63v112q0 101 62 161.5t161 60.5t163 -64l-52 -51q-47 47 -111 47q-70 0 -108 -42.5t-38 -121.5v-102h146v-54h-146v-262h309v-68z"/>
<glyph glyph-name="currency" horiz-adv-x="660" unicode="¤" d="M485 271q0 65 -45 110t-110 45t-110.5 -45.5t-45.5 -109.5t46 -110t110 -46t109.5 45.5t45.5 110.5zM582 65l-46 -46l-75 74q-59 -44 -131 -44q-73 0 -132 44l-74 -74l-46 46l74 74q-44 59 -44 132t44 132l-74 73l46 46l74 -73q57 43 132 43q74 0 131 -43l75 73l46 -46 l-74 -73q44 -59 44 -132t-44 -132z"/>
<glyph glyph-name="yen" horiz-adv-x="514" unicode="¥" d="M506 712l-157 -311h100v-54h-127l-26 -53v-52h153v-55h-153v-187h-77v187h-154v55h154v52l-26 53h-128v54h100l-157 311h82l168 -341l167 341h81z"/>
<glyph glyph-name="brokenbar" horiz-adv-x="335" unicode="¦" d="M199 -74h-72v350h72v-350zM199 436h-72v350h72v-350z"/>
<glyph glyph-name="section" horiz-adv-x="557" unicode="§" d="M397 253q0 60 -32 92q-36 36 -86 36q-53 0 -86 -36t-33 -92t33 -92t86 -36t85.5 35.5t32.5 92.5zM470 254q0 -57 -32 -103q-28 -39 -72 -61q97 -36 97 -144q0 -77 -52.5 -124.5t-131.5 -47.5q-78 0 -129 40q-56 44 -60 121h73q9 -95 116 -95q52 0 81.5 27.5t29.5 77.5 q0 77 -88 102l-78 22q-137 39 -137 183q0 58 32 103q28 39 73 61q-93 42 -93 138q0 73 50.5 118.5t129.5 45.5t129 -42.5t53 -114.5h-72q-7 93 -110 93q-108 0 -108 -99q0 -72 84 -96l78 -22q65 -18 101 -66.5t36 -116.5z"/>
<glyph glyph-name="dieresis" horiz-adv-x="500" unicode="¨" d="M180 602h-72v89h72v-89zM392 602h-72v89h72v-89z"/>
<glyph glyph-name="copyright" horiz-adv-x="881" unicode="©" d="M576 205q-58 -52 -131 -52q-85 0 -132 58q-46 54 -46 145t46.5 147.5t131.5 56.5q71 0 131 -53l-36 -36q-44 39 -95 39q-122 0 -122 -154q0 -153 122 -153q52 0 95 38zM744 356q0 127 -89 217.5t-215 90.5t-214.5 -90.5t-88.5 -217.5t88.5 -217.5t214.5 -90.5t215 90.5 t89 217.5zM802 356q0 -150 -106 -256t-256 -106t-256 106t-106 256t106 256t256 106t256 -106t106 -256z"/>
<glyph glyph-name="ordfeminine" horiz-adv-x="449" unicode="ª" d="M306 458v40h-107q-84 0 -84 -67q0 -65 86 -65q60 0 86 25q19 18 19 67zM365 319h-58v36q-42 -41 -111 -41q-75 0 -110 36q-30 31 -30 79q0 53 35.5 83.5t99.5 30.5h115v36q0 84 -97 84q-66 0 -98 -44l-41 37q47 60 140 60q155 0 155 -132v-265z"/>
<glyph glyph-name="guillemotleft" horiz-adv-x="554" unicode="«" d="M250 58l-210 210l210 210v-90l-120 -120l120 -121v-89zM476 58l-210 210l210 210v-90l-121 -120l121 -121v-89z"/>
<glyph glyph-name="logicalnot" d="M471 103h-67v137h-353v67h420v-204z" unicode="¬"/>
<glyph glyph-name="minus" d="M470 236h-418v67h418v-67z" unicode="­"/>
<glyph glyph-name="minus" d="M470 236h-418v67h418v-67z" unicode="−"/>
<glyph glyph-name="registered" horiz-adv-x="881" unicode="®" d="M526 436q0 30 -21 50t-54 20h-74v-139h74q33 0 54 19.5t21 49.5zM592 158h-64l-91 162h-60v-162h-55v397h135q52 0 88.5 -34.5t36.5 -84.5q0 -83 -85 -109zM745 356q0 128 -89.5 218.5t-215.5 90.5t-215 -90.5t-89 -218.5t89 -218.5t215 -90.5t215.5 90.5t89.5 218.5z M802 356q0 -150 -106 -256t-256 -106t-256 106t-106 256t106 256t256 106t256 -106t106 -256z"/>
<glyph glyph-name="degree" horiz-adv-x="463" unicode="°" d="M335 557q0 45 -30 75.5t-74 30.5t-73.5 -30.5t-29.5 -75.5t30 -75.5t74 -30.5t73.5 30.5t29.5 75.5zM396 557q0 -68 -48 -116t-116 -48t-116.5 48t-48.5 116t48.5 116t116.5 48t116 -48t48 -116z"/>
<glyph glyph-name="plusminus" d="M470 0h-418v67h418v-67zM470 289h-175v-177h-67v177h-176v67h176v175h67v-175h175v-67z" unicode="±"/>
<glyph glyph-name="twosuperior" horiz-adv-x="342" unicode="²" d="M294 285h-246v52l165 202q23 28 23 58q0 67 -65 67t-65 -67h-58q0 54 34.5 86.5t88.5 32.5q55 0 89 -32.5t34 -86.5q0 -45 -39 -92l-138 -168h177v-52z"/>
<glyph glyph-name="threesuperior" horiz-adv-x="356" unicode="³" d="M308 405q0 -59 -36.5 -92t-92.5 -33q-55 0 -90 29q-39 32 -41 90h58q3 -67 73 -67q32 0 52 19.5t20 53.5q0 73 -75 73h-9v50h9q68 0 68 68q0 32 -19 50t-47 18q-62 0 -67 -63h-57q3 53 38 84t86 31q54 0 88.5 -33t34.5 -86q0 -67 -54 -92q61 -26 61 -100z"/>
<glyph glyph-name="acute" horiz-adv-x="500" unicode="´" d="M375 747l-108 -153h-66l88 153h86z"/>
<glyph glyph-name="mu" horiz-adv-x="561" unicode="µ" d="M471 0h-72v55q-53 -61 -138 -61q-66 0 -106 37v-251h-72v712h72v-303q0 -131 121 -131q57 0 90 34t33 97v303h72v-492z"/>
<glyph glyph-name="mu" horiz-adv-x="561" unicode="μ" d="M471 0h-72v55q-53 -61 -138 -61q-66 0 -106 37v-251h-72v712h72v-303q0 -131 121 -131q57 0 90 34t33 97v303h72v-492z"/>
<glyph glyph-name="paragraph" horiz-adv-x="603" unicode="¶" d="M500 -220h-72v864h-117v-864h-72v546q-87 0 -143 59q-54 56 -54 133q0 83 58.5 138.5t158.5 55.5h241v-932z"/>
<glyph glyph-name="cedilla" horiz-adv-x="500" unicode="¸" d="M313 -67l-59 -149h-79l71 149h67z"/>
<glyph glyph-name="onesuperior" horiz-adv-x="261" unicode="¹" d="M183 285h-57v363l-83 -73v66l83 71h57v-427z"/>
<glyph glyph-name="ordmasculine" horiz-adv-x="455" unicode="º" d="M328 515q0 88 -31 119q-28 28 -70 28t-71 -29t-29 -118q0 -88 29.5 -117.5t70.5 -29.5t71 30t30 117zM387 515q0 -107 -48 -156q-43 -44 -112 -44t-112 44q-48 49 -48 156t48 156q44 45 112 45t112 -45q48 -49 48 -156z"/>
<glyph glyph-name="guillemotright" horiz-adv-x="554" unicode="»" d="M288 268l-210 -210v89l121 121l-121 120v90zM514 268l-210 -210v89l120 121l-120 120v90z"/>
<glyph glyph-name="onequarter" horiz-adv-x="777" unicode="¼" d="M183 285h-57v363l-83 -73v66l83 71h57v-427zM566 712l-333 -712h-60l333 712h60zM737 64h-47v-64h-56v64h-172v53l151 310h62l-150 -310h109v105h56v-105h47v-53z"/>
<glyph glyph-name="onehalf" horiz-adv-x="790" unicode="½" d="M183 285h-57v363l-83 -73v66l83 71h57v-427zM554 712l-333 -712h-60l333 712h60zM742 0h-246v52l165 202q23 28 23 58q0 67 -65 67t-65 -67h-58q0 54 34.5 86.5t88.5 32.5q55 0 89 -32.5t34 -86.5q0 -44 -39 -92l-137 -168h176v-52z"/>
<glyph glyph-name="threequarters" horiz-adv-x="822" unicode="¾" d="M308 405q0 -59 -36.5 -92t-92.5 -33q-55 0 -90 29q-39 32 -41 90h58q3 -67 73 -67q32 0 52 19.5t20 53.5q0 73 -75 73h-9v50h9q68 0 68 68q0 32 -19 50t-47 18q-62 0 -67 -63h-57q3 53 38 84t86 31q54 0 88.5 -33t34.5 -86q0 -67 -54 -92q61 -26 61 -100zM619 712 l-334 -712h-60l334 712h60zM782 64h-47v-64h-56v64h-172v53l151 310h62l-151 -310h110v105h56v-105h47v-53z"/>
<glyph glyph-name="questiondown" horiz-adv-x="497" unicode="¿" d="M421 -43q0 -77 -53.5 -130t-133.5 -53t-134 52t-54 131q0 54 46 120l82 118q18 26 18 58v40h72v-41q0 -48 -32 -94l-81 -116q-33 -47 -33 -85q0 -50 33 -84t83 -34q52 0 83.5 34.5t31.5 83.5h72zM270 408h-85v84h85v-84z"/>
<glyph glyph-name="Agrave" horiz-adv-x="611" unicode="À" d="M439 227l-132 376l-134 -376h266zM599 0h-81l-57 161h-311l-57 -161h-81l262 712h64zM351 781h-66l-108 153h86z"/>
<glyph glyph-name="Aacute" horiz-adv-x="611" unicode="Á" d="M439 227l-132 376l-134 -376h266zM599 0h-81l-57 161h-311l-57 -161h-81l262 712h64zM427 934l-108 -153h-66l88 153h86z"/>
<glyph glyph-name="Acircumflex" horiz-adv-x="611" unicode="Â" d="M439 227l-132 376l-134 -376h266zM599 0h-81l-57 161h-311l-57 -161h-81l262 712h64zM461 781h-69l-90 104l-90 -104h-69l125 153h68z"/>
<glyph glyph-name="Atilde" horiz-adv-x="611" unicode="Ã" d="M439 227l-132 376l-134 -376h266zM599 0h-81l-57 161h-311l-57 -161h-81l262 712h64zM459 846q-51 -51 -95 -51q-31 0 -71 23q-36 21 -56 21q-27 0 -59 -32l-37 36q51 51 95 51q32 0 71 -24q33 -20 56 -20q27 0 59 32z"/>
<glyph glyph-name="Adieresis" horiz-adv-x="611" unicode="Ä" d="M439 227l-132 376l-134 -376h266zM599 0h-81l-57 161h-311l-57 -161h-81l262 712h64zM232 789h-72v89h72v-89zM444 789h-72v89h72v-89z"/>
<glyph glyph-name="Aring" horiz-adv-x="611" unicode="Å" d="M439 227l-132 376l-134 -376h266zM599 0h-81l-57 161h-311l-57 -161h-81l262 712h64zM371 867q0 28 -20 48t-49 20t-49 -20t-20 -48t20.5 -48.5t48.5 -20.5q29 0 49 20.5t20 48.5zM420 867q0 -49 -34.5 -84t-83.5 -35t-83.5 35t-34.5 84t34.5 83.5t83.5 34.5t83.5 -34.5 t34.5 -83.5z"/>
<glyph glyph-name="AE" horiz-adv-x="922" unicode="Æ" d="M426 235v409l-214 -409h214zM867 0h-441v169h-247l-88 -169h-83l376 712h483v-68h-366v-253h312v-68h-312v-255h366v-68z"/>
<glyph glyph-name="Ccedilla" horiz-adv-x="637" unicode="Ç" d="M572 206q-17 -99 -84 -155.5t-163 -56.5q-108 0 -182 74q-46 46 -59 112q-8 45 -8 176t8 176q13 66 59 112q74 74 182 74q97 0 163 -56t84 -156h-78q-14 66 -58.5 105t-110.5 39q-74 0 -123 -50q-32 -33 -42 -83q-8 -44 -8 -161t8 -161q10 -50 42 -83q49 -50 123 -50 q66 0 111.5 39t59.5 105h76zM370 -67l-59 -149h-79l71 149h67z"/>
<glyph glyph-name="Egrave" horiz-adv-x="600" unicode="È" d="M545 0h-442v712h442v-68h-366v-251h312v-68h-312v-257h366v-68zM362 781h-66l-108 153h86z"/>
<glyph glyph-name="Eacute" horiz-adv-x="600" unicode="É" d="M545 0h-442v712h442v-68h-366v-251h312v-68h-312v-257h366v-68zM438 934l-108 -153h-66l88 153h86z"/>
<glyph glyph-name="Ecircumflex" horiz-adv-x="600" unicode="Ê" d="M545 0h-442v712h442v-68h-366v-251h312v-68h-312v-257h366v-68zM472 781h-69l-90 104l-90 -104h-69l125 153h68z"/>
<glyph glyph-name="Edieresis" horiz-adv-x="600" unicode="Ë" d="M545 0h-442v712h442v-68h-366v-251h312v-68h-312v-257h366v-68zM243 789h-72v89h72v-89zM455 789h-72v89h72v-89z"/>
<glyph glyph-name="Igrave" horiz-adv-x="282" unicode="Ì" d="M179 0h-76v712h76v-712zM205 781h-66l-108 153h86z"/>
<glyph glyph-name="Iacute" horiz-adv-x="282" unicode="Í" d="M179 0h-76v712h76v-712zM253 934l-108 -153h-66l88 153h86z"/>
<glyph glyph-name="Icircumflex" horiz-adv-x="282" unicode="Î" d="M179 0h-76v712h76v-712zM298 781h-69l-90 104l-90 -104h-69l125 153h68z"/>
<glyph glyph-name="Idieresis" horiz-adv-x="282" unicode="Ï" d="M179 0h-76v712h76v-712zM70 789h-72v89h72v-89zM282 789h-72v89h72v-89z"/>
<glyph glyph-name="Eth" horiz-adv-x="687" unicode="Ð" d="M535 352q0 107 -5 143q-7 45 -31 78q-52 72 -151 72h-154v-256h161v-59h-161v-263h154q107 0 156 74q21 32 26 70q5 33 5 141zM611 356q0 -104 -3 -130q-8 -74 -41 -121q-75 -105 -211 -105h-239v330h-78v59h78v323h245q135 0 205 -107q30 -46 37 -90q7 -40 7 -159z"/>
<glyph glyph-name="Ntilde" horiz-adv-x="732" unicode="Ñ" d="M629 0h-72l-378 571v-571h-76v712h72l378 -569v569h76v-712zM523 846q-51 -51 -95 -51q-31 0 -71 23q-36 21 -56 21q-27 0 -59 -32l-37 36q51 51 95 51q32 0 71 -24q33 -20 56 -20q27 0 59 32z"/>
<glyph glyph-name="Ograve" horiz-adv-x="650" unicode="Ò" d="M498 356q0 117 -8 160q-10 50 -42 83q-50 51 -123 51t-123 -51q-32 -33 -42 -83q-8 -43 -8 -160t8 -160q10 -50 42 -83q50 -51 123 -51t123 51q32 33 42 83q8 43 8 160zM574 356q0 -131 -8 -176q-13 -66 -59 -112q-74 -74 -182 -74t-182 74q-46 46 -59 112q-8 45 -8 176 t8 176q13 66 59 112q74 74 182 74t182 -74q46 -46 59 -112q8 -45 8 -176zM374 781h-66l-108 153h86z"/>
<glyph glyph-name="Oacute" horiz-adv-x="650" unicode="Ó" d="M498 356q0 117 -8 160q-10 50 -42 83q-50 51 -123 51t-123 -51q-32 -33 -42 -83q-8 -43 -8 -160t8 -160q10 -50 42 -83q50 -51 123 -51t123 51q32 33 42 83q8 43 8 160zM574 356q0 -131 -8 -176q-13 -66 -59 -112q-74 -74 -182 -74t-182 74q-46 46 -59 112q-8 45 -8 176 t8 176q13 66 59 112q74 74 182 74t182 -74q46 -46 59 -112q8 -45 8 -176zM450 934l-108 -153h-66l88 153h86z"/>
<glyph glyph-name="Ocircumflex" horiz-adv-x="650" unicode="Ô" d="M498 356q0 117 -8 160q-10 50 -42 83q-50 51 -123 51t-123 -51q-32 -33 -42 -83q-8 -43 -8 -160t8 -160q10 -50 42 -83q50 -51 123 -51t123 51q32 33 42 83q8 43 8 160zM574 356q0 -131 -8 -176q-13 -66 -59 -112q-74 -74 -182 -74t-182 74q-46 46 -59 112q-8 45 -8 176 t8 176q13 66 59 112q74 74 182 74t182 -74q46 -46 59 -112q8 -45 8 -176zM484 781h-69l-90 104l-90 -104h-69l125 153h68z"/>
<glyph glyph-name="Otilde" horiz-adv-x="650" unicode="Õ" d="M498 356q0 117 -8 160q-10 50 -42 83q-50 51 -123 51t-123 -51q-32 -33 -42 -83q-8 -43 -8 -160t8 -160q10 -50 42 -83q50 -51 123 -51t123 51q32 33 42 83q8 43 8 160zM574 356q0 -131 -8 -176q-13 -66 -59 -112q-74 -74 -182 -74t-182 74q-46 46 -59 112q-8 45 -8 176 t8 176q13 66 59 112q74 74 182 74t182 -74q46 -46 59 -112q8 -45 8 -176zM482 846q-51 -51 -95 -51q-31 0 -71 23q-36 21 -56 21q-27 0 -59 -32l-37 36q51 51 95 51q32 0 71 -24q33 -20 56 -20q27 0 59 32z"/>
<glyph glyph-name="Odieresis" horiz-adv-x="650" unicode="Ö" d="M498 356q0 117 -8 160q-10 50 -42 83q-50 51 -123 51t-123 -51q-32 -33 -42 -83q-8 -43 -8 -160t8 -160q10 -50 42 -83q50 -51 123 -51t123 51q32 33 42 83q8 43 8 160zM574 356q0 -131 -8 -176q-13 -66 -59 -112q-74 -74 -182 -74t-182 74q-46 46 -59 112q-8 45 -8 176 t8 176q13 66 59 112q74 74 182 74t182 -74q46 -46 59 -112q8 -45 8 -176zM255 789h-72v89h72v-89zM467 789h-72v89h72v-89z"/>
<glyph glyph-name="multiply" d="M457 119l-45 -45l-151 151l-151 -151l-45 45l151 151l-151 151l45 45l151 -152l151 152l45 -45l-152 -151z" unicode="×"/>
<glyph glyph-name="Oslash" horiz-adv-x="652" unicode="Ø" d="M421 621q-45 29 -96 29q-73 0 -123 -51q-32 -33 -42 -83q-8 -43 -8 -160q0 -104 6 -145q7 -50 29 -80zM497 356q0 105 -5 146q-7 49 -29 79l-234 -490q45 -29 96 -29q73 0 123 51q32 33 41 83q8 42 8 160zM574 356q0 -131 -8 -176q-13 -66 -59 -112q-74 -74 -182 -74 q-70 0 -126 32l-33 -70h-65l50 104l-8 8q-46 46 -59 113q-8 44 -8 175t8 176q13 66 59 112q74 74 182 74q70 0 125 -31l34 69h65l-50 -104l8 -8q46 -46 59 -113q8 -44 8 -175z"/>
<glyph glyph-name="Ugrave" horiz-adv-x="682" unicode="Ù" d="M590 235q0 -106 -70.5 -173.5t-178.5 -67.5t-178 67.5t-70 173.5v477h76v-471q0 -81 47 -130t125 -49t125.5 49t47.5 130v471h76v-477zM390 781h-66l-108 153h86z"/>
<glyph glyph-name="Uacute" horiz-adv-x="682" unicode="Ú" d="M590 235q0 -106 -70.5 -173.5t-178.5 -67.5t-178 67.5t-70 173.5v477h76v-471q0 -81 47 -130t125 -49t125.5 49t47.5 130v471h76v-477zM466 934l-108 -153h-66l88 153h86z"/>
<glyph glyph-name="Ucircumflex" horiz-adv-x="682" unicode="Û" d="M590 235q0 -106 -70.5 -173.5t-178.5 -67.5t-178 67.5t-70 173.5v477h76v-471q0 -81 47 -130t125 -49t125.5 49t47.5 130v471h76v-477zM500 781h-69l-90 104l-90 -104h-69l125 153h68z"/>
<glyph glyph-name="Udieresis" horiz-adv-x="682" unicode="Ü" d="M590 235q0 -106 -70.5 -173.5t-178.5 -67.5t-178 67.5t-70 173.5v477h76v-471q0 -81 47 -130t125 -49t125.5 49t47.5 130v471h76v-477zM271 789h-72v89h72v-89zM483 789h-72v89h72v-89z"/>
<glyph glyph-name="Yacute" horiz-adv-x="515" unicode="Ý" d="M506 712l-210 -418v-294h-76v294l-212 418h82l168 -341l166 341h82zM382 934l-108 -153h-66l88 153h86z"/>
<glyph glyph-name="Thorn" horiz-adv-x="642" unicode="Þ" d="M512 359q0 69 -41 105t-110 36h-182v-282h182q69 0 110 36t41 105zM588 359q0 -95 -61 -152t-159 -57h-189v-150h-76v712h76v-143h189q98 0 159 -57.5t61 -152.5z"/>
<glyph glyph-name="germandbls" horiz-adv-x="556" unicode="ß" d="M484 141q0 -69 -39 -105t-103 -36h-54v62h40q35 0 59.5 20t24.5 67v169q0 41 -21 62t-59 21h-44v60h36q39 0 63.5 24.5t24.5 66.5q0 46 -31 75t-94 29q-124 0 -124 -135v-521h-73v524q0 93 54 144t147 51q85 0 136 -40q57 -44 57 -126q0 -78 -63 -119q36 -19 49.5 -45.5 t13.5 -74.5v-173z"/>
<glyph glyph-name="agrave" horiz-adv-x="526" unicode="à" d="M369 174v53h-138q-110 0 -110 -87q0 -84 113 -84q76 0 110 33q25 24 25 85zM441 0h-72v47q-53 -53 -142 -53q-95 0 -139 45q-37 38 -37 100q0 66 44.5 104t125.5 38h148v47q0 108 -126 108q-84 0 -124 -56l-49 45q32 41 74 58q38 15 100 15q197 0 197 -164v-334zM301 594 h-66l-108 153h86z"/>
<glyph glyph-name="aacute" horiz-adv-x="526" unicode="á" d="M369 174v53h-138q-110 0 -110 -87q0 -84 113 -84q76 0 110 33q25 24 25 85zM441 0h-72v47q-53 -53 -142 -53q-95 0 -139 45q-37 38 -37 100q0 66 44.5 104t125.5 38h148v47q0 108 -126 108q-84 0 -124 -56l-49 45q32 41 74 58q38 15 100 15q197 0 197 -164v-334zM377 747 l-108 -153h-66l88 153h86z"/>
<glyph glyph-name="acircumflex" horiz-adv-x="526" unicode="â" d="M369 174v53h-138q-110 0 -110 -87q0 -84 113 -84q76 0 110 33q25 24 25 85zM441 0h-72v47q-53 -53 -142 -53q-95 0 -139 45q-37 38 -37 100q0 66 44.5 104t125.5 38h148v47q0 108 -126 108q-84 0 -124 -56l-49 45q32 41 74 58q38 15 100 15q197 0 197 -164v-334zM411 594 h-69l-90 104l-90 -104h-69l125 153h68z"/>
<glyph glyph-name="atilde" horiz-adv-x="526" unicode="ã" d="M369 174v53h-138q-110 0 -110 -87q0 -84 113 -84q76 0 110 33q25 24 25 85zM441 0h-72v47q-53 -53 -142 -53q-95 0 -139 45q-37 38 -37 100q0 66 44.5 104t125.5 38h148v47q0 108 -126 108q-84 0 -124 -56l-49 45q32 41 74 58q38 15 100 15q197 0 197 -164v-334zM409 659 q-51 -51 -95 -51q-31 0 -71 23q-36 21 -56 21q-27 0 -59 -32l-37 36q51 51 95 51q32 0 71 -24q33 -20 56 -20q27 0 59 32z"/>
<glyph glyph-name="adieresis" horiz-adv-x="526" unicode="ä" d="M369 174v53h-138q-110 0 -110 -87q0 -84 113 -84q76 0 110 33q25 24 25 85zM441 0h-72v47q-53 -53 -142 -53q-95 0 -139 45q-37 38 -37 100q0 66 44.5 104t125.5 38h148v47q0 108 -126 108q-84 0 -124 -56l-49 45q32 41 74 58q38 15 100 15q197 0 197 -164v-334zM182 602 h-72v89h72v-89zM394 602h-72v89h72v-89z"/>
<glyph glyph-name="aring" horiz-adv-x="526" unicode="å" d="M369 174v53h-138q-110 0 -110 -87q0 -84 113 -84q76 0 110 33q25 24 25 85zM441 0h-72v47q-53 -53 -142 -53q-95 0 -139 45q-37 38 -37 100q0 66 44.5 104t125.5 38h148v47q0 108 -126 108q-84 0 -124 -56l-49 45q32 41 74 58q38 15 100 15q197 0 197 -164v-334zM321 687 q0 28 -20 48t-49 20t-49 -20t-20 -48t20.5 -48.5t48.5 -20.5q29 0 49 20.5t20 48.5zM370 687q0 -49 -34.5 -84t-83.5 -35t-83.5 35t-34.5 84t34.5 83.5t83.5 34.5t83.5 -34.5t34.5 -83.5z"/>
<glyph glyph-name="ae" horiz-adv-x="835" unicode="æ" d="M369 174v53h-138q-110 0 -110 -87q0 -84 113 -84q76 0 110 33q25 24 25 85zM701 281q-3 52 -15 82q-31 74 -115 74t-115 -74q-14 -32 -16 -82h261zM773 227h-333q0 -81 38 -125.5t108 -44.5q72 0 128 56l50 -43q-76 -76 -182 -76q-122 0 -175 85q-33 -47 -74 -66 t-106 -19q-95 0 -139 45q-37 38 -37 100q0 66 44.5 104t125.5 38h148v47q0 108 -126 108q-84 0 -124 -56l-49 45q32 41 74 58q38 15 100 15q132 0 173 -77q52 77 154 77q95 0 148.5 -64t53.5 -174v-33z"/>
<glyph glyph-name="ccedilla" horiz-adv-x="494" unicode="ç" d="M443 67q-38 -41 -74 -57t-88 -16q-97 0 -155 63q-63 67 -63 189t63 189q58 63 155 63q52 0 88 -16t74 -57l-49 -46q-50 55 -113 55q-74 0 -114 -56q-32 -45 -32 -132t32 -132q40 -56 114 -56q62 0 113 56zM313 -67l-59 -149h-79l71 149h67z"/>
<glyph glyph-name="egrave" horiz-adv-x="530" unicode="è" d="M395 281q-3 52 -15 82q-31 74 -115 74t-115 -74q-12 -30 -15 -82h260zM467 227h-332q0 -81 37.5 -125.5t107.5 -44.5q73 0 129 56l49 -43q-40 -40 -77 -57q-43 -19 -103 -19q-101 0 -156 61q-59 64 -59 191q0 119 54 185.5t148 66.5q95 0 148.5 -64t53.5 -174v-33z M317 594h-66l-108 153h86z"/>
<glyph glyph-name="eacute" horiz-adv-x="530" unicode="é" d="M395 281q-3 52 -15 82q-31 74 -115 74t-115 -74q-12 -30 -15 -82h260zM467 227h-332q0 -81 37.5 -125.5t107.5 -44.5q73 0 129 56l49 -43q-40 -40 -77 -57q-43 -19 -103 -19q-101 0 -156 61q-59 64 -59 191q0 119 54 185.5t148 66.5q95 0 148.5 -64t53.5 -174v-33z M393 747l-108 -153h-66l88 153h86z"/>
<glyph glyph-name="ecircumflex" horiz-adv-x="530" unicode="ê" d="M395 281q-3 52 -15 82q-31 74 -115 74t-115 -74q-12 -30 -15 -82h260zM467 227h-332q0 -81 37.5 -125.5t107.5 -44.5q73 0 129 56l49 -43q-40 -40 -77 -57q-43 -19 -103 -19q-101 0 -156 61q-59 64 -59 191q0 119 54 185.5t148 66.5q95 0 148.5 -64t53.5 -174v-33z M427 594h-69l-90 104l-90 -104h-69l125 153h68z"/>
<glyph glyph-name="edieresis" horiz-adv-x="530" unicode="ë" d="M395 281q-3 52 -15 82q-31 74 -115 74t-115 -74q-12 -30 -15 -82h260zM467 227h-332q0 -81 37.5 -125.5t107.5 -44.5q73 0 129 56l49 -43q-40 -40 -77 -57q-43 -19 -103 -19q-101 0 -156 61q-59 64 -59 191q0 119 54 185.5t148 66.5q95 0 148.5 -64t53.5 -174v-33z M198 602h-72v89h72v-89zM410 602h-72v89h72v-89z"/>
<glyph glyph-name="igrave" horiz-adv-x="253" unicode="ì" d="M162 0h-72v492h72v-492zM192 594h-66l-108 153h86z"/>
<glyph glyph-name="iacute" horiz-adv-x="253" unicode="í" d="M162 0h-72v492h72v-492zM240 747l-108 -153h-66l88 153h86z"/>
<glyph glyph-name="icircumflex" horiz-adv-x="253" unicode="î" d="M162 0h-72v492h72v-492zM285 594h-69l-90 104l-90 -104h-69l125 153h68z"/>
<glyph glyph-name="idieresis" horiz-adv-x="253" unicode="ï" d="M162 0h-72v492h72v-492zM54 602h-72v89h72v-89zM266 602h-72v89h72v-89z"/>
<glyph glyph-name="eth" horiz-adv-x="530" unicode="ð" d="M393 244q0 112 -39 151q-36 36 -89 36q-52 0 -88 -36q-39 -39 -39 -151q0 -111 39 -150q36 -36 88 -36q53 0 90.5 37.5t37.5 148.5zM465 244q0 -134 -60 -195q-54 -55 -140 -55t-140 55q-59 60 -59 195t59 195q47 48 122 52q9 1 17 1q35 0 58 -11l-58 99h-116v52h88 l-47 82h75l47 -82h82v-52h-54l63 -111q37 -65 50 -110t13 -115z"/>
<glyph glyph-name="ntilde" horiz-adv-x="562" unicode="ñ" d="M477 0h-72v303q0 131 -121 131q-57 0 -89.5 -34t-32.5 -97v-303h-72v492h72v-54q53 60 138 60q79 0 126 -46q51 -50 51 -137v-315zM442 659q-51 -51 -95 -51q-31 0 -71 23q-36 21 -56 21q-27 0 -59 -32l-37 36q51 51 95 51q32 0 71 -24q33 -20 56 -20q27 0 59 32z"/>
<glyph glyph-name="ograve" horiz-adv-x="530" unicode="ò" d="M394 246q0 113 -39 152q-36 36 -90 36q-53 0 -89 -36q-40 -40 -40 -152t40 -152q36 -36 89 -36q54 0 91.5 37.5t37.5 150.5zM466 246q0 -135 -60 -196q-55 -56 -141 -56t-141 56q-60 61 -60 196t60 196q55 56 141 56t141 -56q60 -61 60 -196zM304 594h-66l-108 153h86z "/>
<glyph glyph-name="oacute" horiz-adv-x="530" unicode="ó" d="M394 246q0 113 -39 152q-36 36 -90 36q-53 0 -89 -36q-40 -40 -40 -152t40 -152q36 -36 89 -36q54 0 91.5 37.5t37.5 150.5zM466 246q0 -135 -60 -196q-55 -56 -141 -56t-141 56q-60 61 -60 196t60 196q55 56 141 56t141 -56q60 -61 60 -196zM390 747l-108 -153h-66 l88 153h86z"/>
<glyph glyph-name="ocircumflex" horiz-adv-x="530" unicode="ô" d="M394 246q0 113 -39 152q-36 36 -90 36q-53 0 -89 -36q-40 -40 -40 -152t40 -152q36 -36 89 -36q54 0 91.5 37.5t37.5 150.5zM466 246q0 -135 -60 -196q-55 -56 -141 -56t-141 56q-60 61 -60 196t60 196q55 56 141 56t141 -56q60 -61 60 -196zM424 594h-69l-90 104 l-90 -104h-69l125 153h68z"/>
<glyph glyph-name="otilde" horiz-adv-x="530" unicode="õ" d="M394 246q0 113 -39 152q-36 36 -90 36q-53 0 -89 -36q-40 -40 -40 -152t40 -152q36 -36 89 -36q54 0 91.5 37.5t37.5 150.5zM466 246q0 -135 -60 -196q-55 -56 -141 -56t-141 56q-60 61 -60 196t60 196q55 56 141 56t141 -56q60 -61 60 -196zM422 659q-51 -51 -95 -51 q-31 0 -71 23q-36 21 -56 21q-27 0 -59 -32l-37 36q51 51 95 51q32 0 71 -24q33 -20 56 -20q27 0 59 32z"/>
<glyph glyph-name="odieresis" horiz-adv-x="530" unicode="ö" d="M394 246q0 113 -39 152q-36 36 -90 36q-53 0 -89 -36q-40 -40 -40 -152t40 -152q36 -36 89 -36q54 0 91.5 37.5t37.5 150.5zM466 246q0 -135 -60 -196q-55 -56 -141 -56t-141 56q-60 61 -60 196t60 196q55 56 141 56t141 -56q60 -61 60 -196zM195 602h-72v89h72v-89z M407 602h-72v89h72v-89z"/>
<glyph glyph-name="divide" d="M304 49h-86v86h86v-86zM471 236h-420v67h420v-67zM304 404h-86v86h86v-86z" unicode="÷"/>
<glyph glyph-name="oslash" horiz-adv-x="530" unicode="ø" d="M337 413q-30 21 -72 21q-53 0 -89 -36q-40 -40 -40 -152q0 -92 25 -133zM394 246q0 94 -24 133l-177 -299q31 -22 72 -22q54 0 91.5 37.5t37.5 150.5zM466 246q0 -135 -60 -196q-55 -56 -141 -56q-59 0 -105 27l-38 -65h-57l57 96q-58 60 -58 194q0 135 60 196 q55 56 141 56q59 0 105 -27l39 65h56l-57 -96q58 -60 58 -194z"/>
<glyph glyph-name="ugrave" horiz-adv-x="563" unicode="ù" d="M472 0h-71v55q-53 -61 -139 -61q-80 0 -127 46q-50 49 -50 138v314h72v-303q0 -131 120 -131q57 0 90 34t33 97v303h72v-492zM327 594h-66l-108 153h86z"/>
<glyph glyph-name="uacute" horiz-adv-x="563" unicode="ú" d="M472 0h-71v55q-53 -61 -139 -61q-80 0 -127 46q-50 49 -50 138v314h72v-303q0 -131 120 -131q57 0 90 34t33 97v303h72v-492zM403 747l-108 -153h-66l88 153h86z"/>
<glyph glyph-name="ucircumflex" horiz-adv-x="563" unicode="û" d="M472 0h-71v55q-53 -61 -139 -61q-80 0 -127 46q-50 49 -50 138v314h72v-303q0 -131 120 -131q57 0 90 34t33 97v303h72v-492zM437 594h-69l-90 104l-90 -104h-69l125 153h68z"/>
<glyph glyph-name="udieresis" horiz-adv-x="563" unicode="ü" d="M472 0h-71v55q-53 -61 -139 -61q-80 0 -127 46q-50 49 -50 138v314h72v-303q0 -131 120 -131q57 0 90 34t33 97v303h72v-492zM208 602h-72v89h72v-89zM420 602h-72v89h72v-89z"/>
<glyph glyph-name="yacute" horiz-adv-x="446" unicode="ý" d="M436 492l-224 -611q-14 -38 -35 -58q-36 -34 -96 -34h-31v64h22q36 0 52 13t29 48l35 96l-177 482h78l135 -395l134 395h78zM348 747l-108 -153h-66l88 153h86z"/>
<glyph glyph-name="thorn" horiz-adv-x="546" unicode="þ" d="M409 246q0 87 -21 130q-29 58 -102 58t-102 -58q-22 -43 -22 -130t22 -130q29 -58 102 -58t102 58q21 43 21 130zM481 246q0 -149 -60 -209q-43 -43 -120 -43q-89 0 -139 64v-278h-72v932h72v-277q49 63 139 63q77 0 120 -43q60 -60 60 -209z"/>
<glyph glyph-name="dotlessi" horiz-adv-x="253" unicode="ı" d="M162 0h-72v492h72v-492z"/>
<glyph glyph-name="OE" horiz-adv-x="989" unicode="Œ" d="M497 356q0 118 -8 160q-9 50 -41 83q-50 51 -123 51t-123 -51q-32 -33 -42 -83q-8 -43 -8 -160t8 -160q10 -50 42 -83q50 -51 123 -51t123 51q32 33 41 83q8 42 8 160zM933 0h-436v74q-65 -80 -173 -80q-107 0 -181 74q-46 46 -58 112q-9 46 -9 176t9 176q12 66 58 112 q74 74 181 74q108 0 173 -80v74h434v-67h-358q0 -39 1 -127v-127h304v-64h-304v-130q-1 -90 -1 -130h360v-67z"/>
<glyph glyph-name="oe" horiz-adv-x="861" unicode="œ" d="M394 246q0 113 -39 152q-36 36 -90 36q-53 0 -89 -36q-40 -40 -40 -152t40 -152q36 -36 89 -36q54 0 91.5 37.5t37.5 150.5zM727 281q-2 50 -16 82q-31 74 -115 74t-115 -74q-12 -30 -15 -82h261zM798 227h-332q0 -81 37.5 -125.5t107.5 -44.5q73 0 129 56l49 -43 q-40 -40 -77 -57q-43 -19 -103 -19q-124 0 -177 95q-49 -95 -167 -95q-86 0 -141 56q-60 61 -60 196t60 196q55 56 141 56q119 0 168 -95q51 95 163 95q95 0 148.5 -64t53.5 -174v-33z"/>
<glyph glyph-name="Scaron" horiz-adv-x="588" unicode="Š" d="M532 196q0 -93 -67 -147.5t-179 -54.5q-150 0 -244 94l52 52q78 -78 194 -78q78 0 123 35t45 97q0 59 -34 89q-27 24 -93 34l-83 13q-185 29 -185 187q0 91 61.5 146t166.5 55q125 0 212 -78l-49 -49q-67 61 -166 61q-70 0 -110 -36t-40 -96q0 -54 33 -82.5t95 -38.5 l78 -12q87 -13 130 -50q60 -51 60 -141zM448 934l-125 -153h-68l-125 153h69l90 -105l90 105h69z"/>
<glyph glyph-name="scaron" horiz-adv-x="496" unicode="š" d="M445 144q0 -70 -54.5 -110t-145.5 -40q-128 0 -202 71l48 48q54 -57 153 -57q131 0 131 87q0 65 -82 72l-81 7q-147 13 -147 132q0 66 50.5 105t130.5 39q112 0 177 -53l-47 -47q-51 39 -131 39q-110 0 -110 -81q0 -64 86 -72l79 -7q145 -13 145 -133zM405 747l-125 -153 h-68l-125 153h69l90 -105l90 105h69z"/>
<glyph glyph-name="Ydieresis" horiz-adv-x="515" unicode="Ÿ" d="M506 712l-210 -418v-294h-76v294l-212 418h82l168 -341l166 341h82zM187 789h-72v89h72v-89zM399 789h-72v89h72v-89z"/>
<glyph glyph-name="circumflex" horiz-adv-x="500" unicode="ˆ" d="M409 594h-69l-90 104l-90 -104h-69l125 153h68z"/>
<glyph glyph-name="caron" horiz-adv-x="500" unicode="ˇ" d="M409 747l-125 -153h-68l-125 153h69l90 -105l90 105h69z"/>
<glyph glyph-name="ring" horiz-adv-x="500" unicode="˚" d="M319 687q0 28 -20 48t-49 20t-49 -20t-20 -48t20.5 -48.5t48.5 -20.5q29 0 49 20.5t20 48.5zM368 687q0 -49 -34.5 -84t-83.5 -35t-83.5 35t-34.5 84t34.5 83.5t83.5 34.5t83.5 -34.5t34.5 -83.5z"/>
<glyph glyph-name="tilde" horiz-adv-x="500" unicode="˜" d="M407 659q-51 -51 -95 -51q-31 0 -71 23q-36 21 -56 21q-27 0 -59 -32l-37 36q51 51 95 51q32 0 71 -24q33 -20 56 -20q27 0 59 32z"/>
<glyph glyph-name="pi" horiz-adv-x="591" unicode="π" d="M490 0h-69v427h-250v-427h-70v492h389v-492z"/>
<glyph glyph-name="endash" d="M470 236h-418v67h418v-67z" unicode="–"/>
<glyph glyph-name="emdash" horiz-adv-x="914" unicode="—" d="M838 236h-762v68h762v-68z"/>
<glyph glyph-name="quoteleft" horiz-adv-x="263" unicode="‘" d="M175 628h-87v84l87 79v-163z"/>
<glyph glyph-name="quotesinglbase" horiz-adv-x="263" unicode="‚" d="M175 0l-87 -79v163h87v-84z"/>
<glyph glyph-name="quotedblleft" horiz-adv-x="434" unicode="“" d="M175 628h-87v84l87 79v-163zM346 628h-88v84l88 79v-163z"/>
<glyph glyph-name="quotedblright" horiz-adv-x="434" unicode="”" d="M175 628l-87 -79v163h87v-84zM346 628l-88 -79v163h88v-84z"/>
<glyph glyph-name="dagger" horiz-adv-x="605" unicode="†" d="M531 445h-194v-445h-72v445h-191v64h191v203h72v-203h194v-64z"/>
<glyph glyph-name="daggerdbl" horiz-adv-x="605" unicode="‡" d="M531 -16h-194v-204h-72v204h-191v64h191v397h-191v64h191v203h72v-203h194v-64h-194v-397h194v-64z"/>
<glyph glyph-name="ellipsis" horiz-adv-x="757" unicode="…" d="M180 0h-92v92h92v-92zM424 0h-92v92h92v-92zM669 0h-92v92h92v-92z"/>
<glyph glyph-name="perthousand" horiz-adv-x="1179" unicode="‰" d="M278 481v101q0 87 -78 87t-78 -87v-101q0 -86 78 -86t78 86zM712 130v101q0 87 -78 87t-78 -87v-101q0 -87 78 -87t78 87zM1058 130v101q0 87 -78 87t-78 -87v-101q0 -87 78 -87t78 87zM335 479q0 -60 -38 -97t-97 -37t-97 37t-38 97v105q0 61 38 98t97 37t97 -37t38 -98 v-105zM614 712l-334 -712h-60l334 712h60zM769 128q0 -61 -38 -98t-97 -37t-97 37t-38 98v105q0 61 38 98t97 37t97 -37t38 -98v-105zM1115 128q0 -61 -38 -98t-97 -37t-97 37t-38 98v105q0 61 38 98t97 37t97 -37t38 -98v-105z"/>
<glyph glyph-name="guilsinglleft" horiz-adv-x="328" unicode="‹" d="M250 58l-210 210l210 210v-90l-120 -120l120 -121v-89z"/>
<glyph glyph-name="guilsinglright" horiz-adv-x="328" unicode="›" d="M288 268l-210 -210v89l121 121l-121 120v90z"/>
<glyph glyph-name="fraction" horiz-adv-x="185" unicode="⁄" d="M289 712l-333 -712h-60l333 712h60z"/>
<glyph glyph-name="trademark" horiz-adv-x="839" unicode="™" d="M331 659h-119v-374h-58v374h-118v53h295v-53zM781 285h-57v308l-102 -202h-56l-102 202v-308h-58v427h58l130 -259l130 259h57v-427z"/>
<glyph glyph-name="partialdiff" horiz-adv-x="544" unicode="∂" d="M381 244q0 112 -37 151q-34 36 -84 36q-51 0 -85 -36q-37 -39 -37 -151q0 -111 37 -150q34 -36 85 -36q50 0 85.5 37.5t35.5 148.5zM453 244q0 -135 -57 -195q-52 -55 -136 -55q-85 0 -137 55q-57 60 -57 195q0 139 57 198q52 53 130 53q81 0 128 -58v70q0 64 -31 104 q-36 45 -104 45q-40 0 -67 -13q-20 -10 -51 -37l-46 46q40 36 76 51t90 15q98 0 153 -60q52 -58 52 -156v-258z"/>
<glyph glyph-name="product" horiz-adv-x="696" unicode="∏" d="M593 -220h-76v912h-338v-912h-76v980h490v-980z"/>
<glyph glyph-name="summation" horiz-adv-x="551" unicode="∑" d="M500 -220h-443v65l202 438l-201 413v64h441v-68h-353l180 -375v-69l-182 -400h356v-68z"/>
<glyph glyph-name="radical" horiz-adv-x="562" unicode="√" d="M532 644h-89l-211 -644h-61l-163 492h79l115 -356l184 576h146v-68z"/>
<glyph glyph-name="infinity" horiz-adv-x="808" unicode="∞" d="M358 266q-41 50 -63 68q-32 26 -66 26q-41 0 -67 -26t-26 -68t26 -67.5t67 -25.5q34 0 66 26q23 18 63 67zM671 266q0 42 -25.5 67.5t-66.5 25.5q-34 0 -66 -25q-24 -19 -64 -68q40 -49 64 -67q32 -26 66 -26q41 0 66.5 25.5t25.5 67.5zM740 267q0 -69 -43.5 -114 t-114.5 -45q-51 0 -92 24.5t-86 79.5q-86 -105 -177 -105q-71 0 -115.5 45.5t-44.5 114.5t44.5 114.5t115.5 45.5q90 0 177 -106q46 56 86.5 81t91.5 25q71 0 114.5 -45.5t43.5 -114.5z"/>
<glyph glyph-name="notequal" horiz-adv-x="537" unicode="≠" d="M485 151h-284l-103 -111l-46 40l67 71h-67v66h126l99 103h-225v67h284l104 111l45 -41l-67 -70h67v-67h-126l-98 -103h224v-66z"/>
<glyph glyph-name="lessequal" horiz-adv-x="1027" unicode="≤" d="M862 -31l-49 -49l-557 558v-516l-67 67v564h565l66 -67l-515 1z"/>
<glyph glyph-name="greaterequal" horiz-adv-x="1027" unicode="≥" d="M838 29l-67 -67v516l-557 -558l-49 49l557 558l-515 -1l66 67h565v-564z"/>
<glyph glyph-name="lozenge" horiz-adv-x="649" unicode="◊" d="M501 352l-176 253l-177 -253l177 -255zM582 352l-257 -364l-258 364l258 364z"/>
</font>
</defs>
</svg>
